<svg xmlns="http://www.w3.org/2000/svg" xmlns:xlink="http://www.w3.org/1999/xlink" width="1500" zoomAndPan="magnify" viewBox="0 0 1125 374.999991" height="500" preserveAspectRatio="xMidYMid meet" version="1.0"><defs><g/><clipPath id="b89f5f0112"><path d="M 0 0.00390625 L 308.25 0.00390625 L 308.25 369 L 0 369 Z M 0 0.00390625 " clip-rule="nonzero"/></clipPath><clipPath id="1e594f9c1c"><path d="M 308.25 22.503906 L 308.25 352.496094 C 308.25 357.601562 305.746094 362.375 301.550781 365.273438 C 297.351562 368.171875 292.003906 368.820312 287.238281 367.007812 L 175.136719 324.390625 C 161.601562 319.246094 146.648438 319.246094 133.113281 324.390625 L 21.011719 367.007812 C 16.246094 368.820312 10.898438 368.171875 6.699219 365.273438 C 2.503906 362.375 0 357.601562 0 352.496094 L 0 22.503906 C 0 10.078125 10.0625 0.00390625 22.476562 0.00390625 L 285.773438 0.00390625 C 291.734375 0.00390625 297.453125 2.375 301.667969 6.59375 C 305.882812 10.8125 308.25 16.535156 308.25 22.503906 " clip-rule="nonzero"/></clipPath></defs><g clip-path="url(#b89f5f0112)"><g clip-path="url(#1e594f9c1c)"><path stroke-linecap="butt" transform="matrix(0.749231, 0, 0, 0.75, 0.0000135, 0.00310577)" fill="none" stroke-linejoin="miter" d="M 411.421871 30.001069 L 411.421871 469.990681 C 411.421871 476.797974 408.079902 483.162557 402.48041 487.027141 C 396.875705 490.891725 389.738177 491.756308 383.377488 489.339641 L 233.755309 432.516721 C 215.689909 425.657345 195.731944 425.657345 177.666544 432.516721 L 28.044365 489.339641 C 21.683676 491.756308 14.546148 490.891725 8.941443 487.027141 C 3.341951 483.162557 -0.0000180185 476.797974 -0.0000180185 469.990681 L -0.0000180185 30.001069 C -0.0000180185 13.43336 13.430421 0.0010673 29.999495 0.0010673 L 381.422358 0.0010673 C 389.378434 0.0010673 397.011261 3.162526 402.636821 8.787526 C 408.262381 14.412527 411.421871 22.042735 411.421871 30.001069 " stroke="#00bf63" stroke-width="180" stroke-opacity="1" stroke-miterlimit="4"/></g></g><g fill="#ffffff" fill-opacity="1"><g transform="translate(393.123533, 161.229329)"><g><path d="M 54.734375 -119.21875 C 60.972656 -119.21875 66.535156 -118.488281 71.421875 -117.03125 C 76.316406 -115.582031 80.601562 -113.335938 84.28125 -110.296875 C 87.957031 -107.253906 90.769531 -103.234375 92.71875 -98.234375 C 94.675781 -93.242188 95.65625 -87.363281 95.65625 -80.59375 C 95.65625 -73.875 94.703125 -68.054688 92.796875 -63.140625 C 90.898438 -58.222656 88.125 -54.253906 84.46875 -51.234375 C 80.820312 -48.222656 76.539062 -46.003906 71.625 -44.578125 C 66.707031 -43.148438 61.078125 -42.4375 54.734375 -42.4375 L 35.9375 -42.4375 L 35.9375 0 L 11.65625 0 L 11.65625 -119.21875 Z M 51.15625 -63.0625 C 53.644531 -63.0625 55.75 -63.148438 57.46875 -63.328125 C 59.1875 -63.515625 60.957031 -63.953125 62.78125 -64.640625 C 64.601562 -65.328125 66.070312 -66.28125 67.1875 -67.5 C 68.300781 -68.71875 69.210938 -70.421875 69.921875 -72.609375 C 70.640625 -74.804688 71 -77.46875 71 -80.59375 C 71 -84.289062 70.492188 -87.328125 69.484375 -89.703125 C 68.484375 -92.085938 66.988281 -93.847656 65 -94.984375 C 63.019531 -96.117188 60.984375 -96.875 58.890625 -97.25 C 56.804688 -97.625 54.226562 -97.8125 51.15625 -97.8125 L 35.9375 -97.8125 L 35.9375 -63.0625 Z M 51.15625 -63.0625 "/></g></g></g><g fill="#ffffff" fill-opacity="1"><g transform="translate(492.834708, 161.229329)"><g><path d="M 55.53125 1.59375 C 41.5625 1.59375 30.90625 -2.664062 23.5625 -11.1875 C 15.625 -20.125 11.65625 -34.21875 11.65625 -53.46875 L 11.65625 -119.21875 L 35.9375 -119.21875 L 35.9375 -52.671875 C 35.9375 -40.398438 37.546875 -31.726562 40.765625 -26.65625 C 43.941406 -21.789062 48.8125 -19.359375 55.375 -19.359375 C 61.769531 -19.359375 66.609375 -21.789062 69.890625 -26.65625 C 73.210938 -31.9375 74.875 -40.609375 74.875 -52.671875 L 74.875 -119.21875 L 99.078125 -119.21875 L 99.078125 -53.46875 C 99.078125 -34.269531 95.132812 -20.175781 87.25 -11.1875 C 79.738281 -2.664062 69.164062 1.59375 55.53125 1.59375 Z M 55.53125 1.59375 "/></g></g></g><g fill="#ffffff" fill-opacity="1"><g transform="translate(603.572014, 161.229329)"><g><path d="M 51.484375 1.59375 C 38.628906 1.59375 28.316406 -1.472656 20.546875 -7.609375 C 12.773438 -13.742188 7.773438 -22.578125 5.546875 -34.109375 L 28.71875 -40.9375 C 29.664062 -34.425781 32.039062 -29.359375 35.84375 -25.734375 C 39.65625 -22.117188 44.867188 -20.3125 51.484375 -20.3125 C 56.765625 -20.3125 61.03125 -21.722656 64.28125 -24.546875 C 67.539062 -27.378906 69.171875 -30.9375 69.171875 -35.21875 C 69.171875 -36.75 68.914062 -38.132812 68.40625 -39.375 C 67.90625 -40.625 67.097656 -41.75 65.984375 -42.75 C 64.878906 -43.757812 63.757812 -44.644531 62.625 -45.40625 C 61.488281 -46.175781 59.914062 -46.957031 57.90625 -47.75 C 55.894531 -48.539062 54.148438 -49.203125 52.671875 -49.734375 C 51.191406 -50.265625 49.15625 -50.953125 46.5625 -51.796875 C 43.96875 -52.640625 41.878906 -53.351562 40.296875 -53.9375 C 37.597656 -54.894531 35.398438 -55.703125 33.703125 -56.359375 C 32.015625 -57.015625 29.96875 -57.925781 27.5625 -59.09375 C 25.15625 -60.257812 23.1875 -61.382812 21.65625 -62.46875 C 20.125 -63.550781 18.507812 -64.9375 16.8125 -66.625 C 15.125 -68.320312 13.789062 -70.109375 12.8125 -71.984375 C 11.832031 -73.859375 11.023438 -76.078125 10.390625 -78.640625 C 9.753906 -81.210938 9.4375 -83.976562 9.4375 -86.9375 C 9.4375 -97.144531 13.097656 -105.351562 20.421875 -111.5625 C 27.742188 -117.78125 37.273438 -120.890625 49.015625 -120.890625 C 59.492188 -120.890625 68.195312 -118.664062 75.125 -114.21875 C 82.050781 -109.78125 87.492188 -102.960938 91.453125 -93.765625 L 70.671875 -82.8125 C 68.453125 -88.46875 65.648438 -92.617188 62.265625 -95.265625 C 58.878906 -97.910156 54.460938 -99.234375 49.015625 -99.234375 C 44.472656 -99.234375 40.773438 -98.109375 37.921875 -95.859375 C 35.066406 -93.609375 33.640625 -90.789062 33.640625 -87.40625 C 33.640625 -86.25 33.847656 -85.179688 34.265625 -84.203125 C 34.691406 -83.222656 35.40625 -82.320312 36.40625 -81.5 C 37.414062 -80.6875 38.421875 -79.972656 39.421875 -79.359375 C 40.429688 -78.753906 41.832031 -78.09375 43.625 -77.375 C 45.425781 -76.664062 46.972656 -76.070312 48.265625 -75.59375 C 49.566406 -75.113281 51.378906 -74.488281 53.703125 -73.71875 C 56.023438 -72.957031 57.898438 -72.3125 59.328125 -71.78125 L 59.40625 -71.78125 L 59.578125 -71.703125 C 68.617188 -68.367188 75.117188 -65.460938 79.078125 -62.984375 C 88.335938 -57.160156 93.390625 -49.175781 94.234375 -39.03125 C 94.335938 -37.914062 94.390625 -36.773438 94.390625 -35.609375 C 94.390625 -24.828125 90.367188 -15.929688 82.328125 -8.921875 C 74.296875 -1.910156 64.015625 1.59375 51.484375 1.59375 Z M 51.484375 1.59375 "/></g></g></g><g fill="#ffffff" fill-opacity="1"><g transform="translate(704.552384, 161.229329)"><g><path d="M 83.046875 -119.21875 L 83.046875 -97.96875 L 55.046875 -97.96875 L 55.046875 0 L 30.859375 0 L 30.859375 -97.96875 L 2.78125 -97.96875 L 2.78125 -119.21875 Z M 83.046875 -119.21875 "/></g></g></g><g fill="#ffffff" fill-opacity="1"><g transform="translate(790.143771, 161.229329)"><g><path d="M 77.015625 0 L 70.046875 -25.703125 L 35.9375 -25.703125 L 28.953125 0 L 2.453125 0 L 40.296875 -119.21875 L 65.59375 -119.21875 L 103.515625 0 Z M 41.25 -45.453125 L 64.640625 -45.453125 L 58.9375 -66.625 L 52.984375 -89.875 L 46.953125 -66.625 Z M 41.25 -45.453125 "/></g></g></g><g fill="#ffffff" fill-opacity="1"><g transform="translate(896.042263, 161.229329)"><g><path d="M 11.65625 0 L 11.65625 -119.21875 L 35.9375 -119.21875 L 35.9375 0 Z M 70.515625 0 L 35.9375 -60.4375 L 67.734375 -119.21875 L 95.03125 -119.21875 L 60.765625 -60.4375 L 97.640625 0 Z M 70.515625 0 "/></g></g></g><g fill="#ffffff" fill-opacity="1"><g transform="translate(995.11884, 161.229329)"><g><path d="M 77.015625 0 L 70.046875 -25.703125 L 35.9375 -25.703125 L 28.953125 0 L 2.453125 0 L 40.296875 -119.21875 L 65.59375 -119.21875 L 103.515625 0 Z M 41.25 -45.453125 L 64.640625 -45.453125 L 58.9375 -66.625 L 52.984375 -89.875 L 46.953125 -66.625 Z M 41.25 -45.453125 "/></g></g></g><g fill="#ffffff" fill-opacity="1"><g transform="translate(394.391121, 321.020633)"><g><path d="M 77.015625 0 L 70.046875 -25.703125 L 35.9375 -25.703125 L 28.953125 0 L 2.453125 0 L 40.296875 -119.21875 L 65.59375 -119.21875 L 103.515625 0 Z M 41.25 -45.453125 L 64.640625 -45.453125 L 58.9375 -66.625 L 52.984375 -89.875 L 46.953125 -66.625 Z M 41.25 -45.453125 "/></g></g></g><g fill="#ffffff" fill-opacity="1"><g transform="translate(516.535747, 321.020633)"><g><path d="M 51.484375 1.59375 C 38.628906 1.59375 28.316406 -1.472656 20.546875 -7.609375 C 12.773438 -13.742188 7.773438 -22.578125 5.546875 -34.109375 L 28.71875 -40.9375 C 29.664062 -34.425781 32.039062 -29.359375 35.84375 -25.734375 C 39.65625 -22.117188 44.867188 -20.3125 51.484375 -20.3125 C 56.765625 -20.3125 61.03125 -21.722656 64.28125 -24.546875 C 67.539062 -27.378906 69.171875 -30.9375 69.171875 -35.21875 C 69.171875 -36.75 68.914062 -38.132812 68.40625 -39.375 C 67.90625 -40.625 67.097656 -41.75 65.984375 -42.75 C 64.878906 -43.757812 63.757812 -44.644531 62.625 -45.40625 C 61.488281 -46.175781 59.914062 -46.957031 57.90625 -47.75 C 55.894531 -48.539062 54.148438 -49.203125 52.671875 -49.734375 C 51.191406 -50.265625 49.15625 -50.953125 46.5625 -51.796875 C 43.96875 -52.640625 41.878906 -53.351562 40.296875 -53.9375 C 37.597656 -54.894531 35.398438 -55.703125 33.703125 -56.359375 C 32.015625 -57.015625 29.96875 -57.925781 27.5625 -59.09375 C 25.15625 -60.257812 23.1875 -61.382812 21.65625 -62.46875 C 20.125 -63.550781 18.507812 -64.9375 16.8125 -66.625 C 15.125 -68.320312 13.789062 -70.109375 12.8125 -71.984375 C 11.832031 -73.859375 11.023438 -76.078125 10.390625 -78.640625 C 9.753906 -81.210938 9.4375 -83.976562 9.4375 -86.9375 C 9.4375 -97.144531 13.097656 -105.351562 20.421875 -111.5625 C 27.742188 -117.78125 37.273438 -120.890625 49.015625 -120.890625 C 59.492188 -120.890625 68.195312 -118.664062 75.125 -114.21875 C 82.050781 -109.78125 87.492188 -102.960938 91.453125 -93.765625 L 70.671875 -82.8125 C 68.453125 -88.46875 65.648438 -92.617188 62.265625 -95.265625 C 58.878906 -97.910156 54.460938 -99.234375 49.015625 -99.234375 C 44.472656 -99.234375 40.773438 -98.109375 37.921875 -95.859375 C 35.066406 -93.609375 33.640625 -90.789062 33.640625 -87.40625 C 33.640625 -86.25 33.847656 -85.179688 34.265625 -84.203125 C 34.691406 -83.222656 35.40625 -82.320312 36.40625 -81.5 C 37.414062 -80.6875 38.421875 -79.972656 39.421875 -79.359375 C 40.429688 -78.753906 41.832031 -78.09375 43.625 -77.375 C 45.425781 -76.664062 46.972656 -76.070312 48.265625 -75.59375 C 49.566406 -75.113281 51.378906 -74.488281 53.703125 -73.71875 C 56.023438 -72.957031 57.898438 -72.3125 59.328125 -71.78125 L 59.40625 -71.78125 L 59.578125 -71.703125 C 68.617188 -68.367188 75.117188 -65.460938 79.078125 -62.984375 C 88.335938 -57.160156 93.390625 -49.175781 94.234375 -39.03125 C 94.335938 -37.914062 94.390625 -36.773438 94.390625 -35.609375 C 94.390625 -24.828125 90.367188 -15.929688 82.328125 -8.921875 C 74.296875 -1.910156 64.015625 1.59375 51.484375 1.59375 Z M 51.484375 1.59375 "/></g></g></g><g fill="#ffffff" fill-opacity="1"><g transform="translate(633.76223, 321.020633)"><g><path d="M 114.21875 -119.21875 L 141.515625 -119.21875 L 114.546875 0 L 89.3125 0 L 74.09375 -72.265625 L 71.78125 -85.75 L 69.328125 -72.265625 L 54.09375 0 L 28.953125 0 L 1.984375 -119.21875 L 29.265625 -119.21875 L 40.9375 -50.375 L 43.234375 -36.25 L 45.84375 -50.375 L 59.328125 -119.21875 L 84.15625 -119.21875 L 97.8125 -50.375 L 100.421875 -36.25 L 102.484375 -50.375 Z M 114.21875 -119.21875 "/></g></g></g><g fill="#ffffff" fill-opacity="1"><g transform="translate(793.427439, 321.020633)"><g><path d="M 77.015625 0 L 70.046875 -25.703125 L 35.9375 -25.703125 L 28.953125 0 L 2.453125 0 L 40.296875 -119.21875 L 65.59375 -119.21875 L 103.515625 0 Z M 41.25 -45.453125 L 64.640625 -45.453125 L 58.9375 -66.625 L 52.984375 -89.875 L 46.953125 -66.625 Z M 41.25 -45.453125 "/></g></g></g><g fill="#ffffff" fill-opacity="1"><g transform="translate(915.572054, 321.020633)"><g><path d="M 26.171875 -119.21875 L 50.375 -119.21875 L 50.375 -40.9375 C 50.375 -25.644531 47.539062 -15.09375 41.875 -9.28125 C 38.382812 -5.632812 33.664062 -3.175781 27.71875 -1.90625 C 21.769531 -0.632812 13.191406 0 1.984375 0 L 1.984375 -20.9375 C 8.015625 -20.9375 12.535156 -21.265625 15.546875 -21.921875 C 18.554688 -22.585938 20.859375 -23.847656 22.453125 -25.703125 C 24.929688 -28.453125 26.171875 -33.582031 26.171875 -41.09375 Z M 26.171875 -119.21875 "/></g></g></g><g fill="#ffffff" fill-opacity="1"><g transform="translate(993.850095, 321.020633)"><g><path d="M 77.015625 0 L 70.046875 -25.703125 L 35.9375 -25.703125 L 28.953125 0 L 2.453125 0 L 40.296875 -119.21875 L 65.59375 -119.21875 L 103.515625 0 Z M 41.25 -45.453125 L 64.640625 -45.453125 L 58.9375 -66.625 L 52.984375 -89.875 L 46.953125 -66.625 Z M 41.25 -45.453125 "/></g></g></g></svg>