<svg xmlns="http://www.w3.org/2000/svg" xmlns:xlink="http://www.w3.org/1999/xlink" width="300" zoomAndPan="magnify" viewBox="0 0 375 374.999991" height="300" preserveAspectRatio="xMidYMid meet" version="1.0"><path fill="#00bf63" d="M 356.90625 163.910156 C 337.457031 150.257812 322.59375 132.289062 307.464844 114.210938 C 300.042969 105.347656 292.5 96.554688 284.085938 88.605469 C 276.902344 81.820312 267.6875 74.578125 257.089844 76.007812 C 243.449219 70.523438 228.230469 69.550781 214.277344 74.714844 C 204.144531 78.464844 191.957031 86.859375 188.480469 97.980469 C 184.671875 86.933594 172.398438 78.746094 162.230469 74.992188 C 147.917969 69.707031 132.121094 70.484375 118.039062 76.011719 C 107.429688 74.5625 98.203125 81.808594 91.011719 88.605469 C 82.597656 96.554688 75.054688 105.347656 67.632812 114.210938 C 52.535156 132.25 37.703125 150.175781 18.320312 163.816406 C 16.820312 163.476562 15.828125 166.015625 17.34375 166.742188 C 17.347656 166.742188 17.347656 166.742188 17.351562 166.742188 C 17.535156 166.972656 17.804688 167.125 18.144531 167.117188 C 38.707031 176.898438 59.636719 186.066406 80.621094 194.976562 C 75.414062 202.257812 71.335938 210.628906 66.992188 218.40625 C 62.589844 226.285156 58.257812 234.199219 54.003906 242.160156 C 45.910156 257.308594 37.414062 272.386719 29.902344 287.847656 C 29.414062 288.058594 28.929688 288.277344 28.441406 288.488281 C 26.8125 289.195312 26.957031 290.851562 27.902344 291.890625 C 27.738281 292.273438 27.757812 292.730469 28.089844 293.207031 C 30.757812 297.003906 35.0625 304.171875 40.09375 304.789062 C 43.183594 305.167969 46.917969 302.863281 49.683594 301.828125 C 53.023438 300.574219 56.347656 299.289062 59.660156 297.972656 C 74.503906 292.078125 89.066406 285.515625 103.371094 278.414062 C 131.460938 264.472656 159.261719 249.945312 187.253906 235.804688 C 215.417969 249.984375 243.480469 264.394531 271.726562 278.414062 C 285.765625 285.382812 300.050781 291.832031 314.609375 297.644531 C 318.195312 299.074219 321.796875 300.46875 325.414062 301.828125 C 328.160156 302.855469 331.917969 305.144531 335.003906 304.789062 C 339.976562 304.21875 344.398438 296.921875 347.007812 293.207031 C 347.332031 292.742188 347.355469 292.292969 347.207031 291.917969 C 347.214844 291.898438 347.222656 291.875 347.230469 291.855469 C 348.144531 290.8125 348.265625 289.1875 346.652344 288.488281 C 346.566406 288.449219 346.480469 288.410156 346.394531 288.375 C 343.308594 280.882812 338.386719 273.710938 334.519531 266.675781 C 329.882812 258.234375 325.238281 249.800781 320.601562 241.363281 C 315.984375 232.976562 311.371094 224.585938 306.726562 216.214844 C 302.816406 209.175781 299.261719 201.230469 294.410156 194.691406 C 315.449219 185.941406 336.359375 176.832031 356.945312 167.117188 C 357.285156 167.125 357.550781 166.976562 357.738281 166.746094 C 357.742188 166.742188 357.746094 166.742188 357.75 166.742188 C 359.339844 165.988281 358.363281 163.96875 356.90625 163.910156 Z M 273.835938 84.097656 C 278.648438 87.496094 282.898438 91.890625 287.011719 96.082031 C 294.777344 103.992188 301.964844 112.433594 309.132812 120.882812 C 322.449219 136.585938 336.097656 153.011719 353.640625 164.175781 C 346.410156 163.128906 339.167969 162.164062 331.941406 161.085938 C 331.9375 161.078125 331.933594 161.074219 331.929688 161.066406 C 319.171875 145.8125 306.414062 130.554688 293.65625 115.300781 C 287.628906 108.097656 281.667969 100.835938 275.5625 93.703125 C 272.582031 90.21875 269.527344 86.796875 266.242188 83.59375 C 264.8125 82.203125 263.367188 80.753906 261.761719 79.578125 C 263.042969 79.753906 264.332031 79.925781 265.589844 80.246094 C 268.589844 81.015625 271.316406 82.320312 273.835938 84.097656 Z M 189.871094 213.292969 C 189.277344 213.082031 188.679688 212.878906 188.085938 212.664062 C 190.121094 209.4375 190.996094 205.496094 192.226562 201.917969 C 194.058594 196.59375 196.101562 191.34375 198.570312 186.277344 C 203.820312 175.519531 211.671875 167.933594 221.78125 161.632812 C 232.125 155.191406 243.28125 150.140625 254.972656 146.683594 C 266.925781 143.152344 280.765625 139.648438 293.027344 143.375 C 293.191406 143.425781 293.339844 143.4375 293.480469 143.429688 C 293.484375 143.433594 293.484375 143.433594 293.488281 143.433594 C 293.554688 143.539062 293.617188 143.640625 293.683594 143.746094 C 293.941406 144.148438 294.335938 144.277344 294.703125 144.226562 C 304.660156 150.726562 315.191406 157.691406 326.339844 162.023438 C 297.707031 169.464844 271.21875 183.515625 243.453125 193.519531 C 225.574219 199.960938 207.488281 206.085938 189.871094 213.292969 Z M 166.222656 223.933594 C 160.382812 221.09375 153.726562 219.457031 147.617188 217.296875 C 141.46875 215.125 135.335938 212.910156 129.222656 210.632812 C 117.964844 206.445312 106.792969 202.023438 95.691406 197.429688 C 71.832031 187.5625 48.425781 176.648438 24.691406 166.5 C 30.984375 165.976562 37.65625 165.433594 43.464844 163.382812 C 43.597656 163.484375 43.761719 163.570312 43.960938 163.621094 C 71.367188 170.75 96.390625 184.410156 122.847656 194.171875 C 143.457031 201.773438 164.539062 207.980469 185.273438 215.207031 C 178.839844 217.929688 172.480469 220.816406 166.222656 223.933594 Z M 80.394531 144.226562 C 80.761719 144.277344 81.152344 144.148438 81.414062 143.746094 C 81.476562 143.640625 81.542969 143.539062 81.609375 143.433594 C 81.75 143.441406 81.902344 143.429688 82.066406 143.375 C 94.101562 139.621094 107.664062 143.078125 119.40625 146.5625 C 130.882812 149.96875 141.824219 155.007812 151.9375 161.402344 C 161.902344 167.703125 169.527344 175.285156 174.636719 185.960938 C 177.054688 191.015625 179.035156 196.265625 180.820312 201.574219 C 181.902344 204.796875 182.703125 208.316406 184.324219 211.34375 C 164.199219 204.34375 143.742188 198.308594 123.738281 190.945312 C 98.582031 181.683594 74.757812 168.855469 48.753906 162.023438 C 59.902344 157.695312 70.4375 150.726562 80.394531 144.226562 Z M 199.113281 88.261719 C 203.914062 83.304688 210.226562 79.910156 216.679688 77.613281 C 229.921875 72.90625 244.132812 73.699219 257.105469 78.789062 C 258.976562 81.8125 262.023438 83.945312 264.550781 86.425781 C 267.628906 89.445312 270.511719 92.664062 273.332031 95.929688 C 279.660156 103.265625 285.847656 110.726562 292.09375 118.132812 C 303.265625 131.375 314.4375 144.621094 325.613281 157.863281 C 316.175781 150.769531 305.019531 145.335938 294.691406 140.070312 C 294.382812 139.914062 294.085938 139.855469 293.808594 139.859375 C 287.957031 130.199219 282 120.609375 276.042969 111.011719 C 269.839844 101.007812 264.140625 90.367188 256.707031 81.210938 C 256.300781 80.710938 255.644531 81.351562 255.875 81.851562 C 260.878906 92.78125 268.074219 102.820312 274.410156 113.015625 C 280.078125 122.136719 285.742188 131.253906 291.503906 140.316406 C 280.113281 137.148438 267.582031 139.597656 256.394531 142.570312 C 243.816406 145.914062 231.625 151.054688 220.515625 157.835938 C 210.496094 163.953125 202.03125 171.296875 196.398438 181.714844 C 193.796875 186.53125 191.808594 191.632812 190.058594 196.808594 C 189.230469 199.261719 188.191406 201.921875 187.375 204.628906 C 187.257812 203.480469 187.144531 202.347656 187.097656 201.273438 C 186.898438 196.632812 186.730469 191.996094 186.601562 187.351562 C 186.335938 177.855469 186.226562 168.355469 186.324219 158.855469 C 186.511719 140.898438 187.351562 122.945312 189.550781 105.113281 C 189.625 105.015625 189.671875 104.894531 189.671875 104.765625 C 189.671875 104.601562 189.65625 104.4375 189.652344 104.273438 C 189.695312 103.914062 189.734375 103.554688 189.78125 103.195312 C 193.050781 98.289062 194.871094 92.636719 199.113281 88.261719 Z M 159.097656 77.640625 C 165.890625 79.960938 172.621094 83.414062 177.71875 88.554688 C 181.996094 92.867188 183.941406 98.398438 187.199219 103.277344 C 184.726562 121.695312 183.640625 140.277344 183.449219 158.855469 C 183.351562 168.355469 183.460938 177.855469 183.722656 187.351562 C 183.839844 191.523438 183.992188 195.695312 184.167969 199.867188 C 183.847656 198.941406 183.535156 198.039062 183.25 197.160156 C 181.570312 191.980469 179.664062 186.875 177.164062 182.03125 C 171.675781 171.402344 163.316406 163.84375 153.21875 157.609375 C 142.5625 151.027344 130.890625 145.984375 118.808594 142.667969 C 107.632812 139.601562 95.007812 137.054688 83.605469 140.296875 C 89.363281 131.242188 95.023438 122.128906 100.6875 113.015625 C 107.023438 102.820312 114.21875 92.78125 119.222656 81.851562 C 119.449219 81.355469 118.796875 80.707031 118.386719 81.210938 C 110.957031 90.367188 105.253906 101.007812 99.050781 111.011719 C 93.097656 120.609375 87.136719 130.199219 81.289062 139.859375 C 81.011719 139.855469 80.714844 139.914062 80.40625 140.070312 C 70.078125 145.335938 58.921875 150.769531 49.484375 157.863281 C 60.660156 144.621094 71.832031 131.375 83.003906 118.132812 C 89.078125 110.933594 95.101562 103.691406 101.238281 96.542969 C 104.046875 93.269531 106.917969 90.042969 109.976562 86.996094 C 112.648438 84.332031 115.980469 82.03125 117.980469 78.804688 C 131.1875 73.796875 145.632812 73.035156 159.097656 77.640625 Z M 65.964844 120.882812 C 73.132812 112.433594 80.320312 103.996094 88.085938 96.082031 C 92.039062 92.050781 96.113281 87.867188 100.675781 84.511719 C 103.355469 82.542969 106.28125 81.085938 109.507812 80.246094 C 110.765625 79.917969 112.058594 79.746094 113.34375 79.570312 C 111.960938 80.589844 110.695312 81.820312 109.433594 83.03125 C 106.121094 86.199219 103.050781 89.613281 100.0625 93.085938 C 93.761719 100.410156 87.640625 107.890625 81.441406 115.300781 C 68.683594 130.554688 55.925781 145.8125 43.167969 161.066406 C 43.160156 161.074219 43.160156 161.078125 43.15625 161.085938 C 35.929688 162.164062 28.6875 163.128906 21.457031 164.175781 C 39 153.011719 52.648438 136.585938 65.964844 120.882812 Z M 57.328125 244.097656 C 61.621094 236.160156 65.90625 228.21875 70.273438 220.324219 C 74.675781 212.363281 79.855469 204.539062 83.691406 196.28125 C 86.945312 197.65625 90.195312 199.027344 93.449219 200.394531 C 104.511719 205.042969 115.652344 209.511719 126.867188 213.792969 C 132.917969 216.101562 138.992188 218.359375 145.085938 220.566406 C 150.226562 222.433594 155.5625 224.804688 160.929688 226.402344 C 119.417969 247.117188 77.648438 266.9375 35.152344 285.542969 C 42.855469 271.914062 49.890625 257.851562 57.328125 244.097656 Z M 72.277344 288.902344 C 65.320312 291.882812 58.296875 294.710938 51.222656 297.394531 C 47.722656 298.722656 43.429688 301.277344 39.851562 300.03125 C 36.265625 298.78125 33.660156 295.402344 31.386719 292.34375 C 76.9375 273.125 122 251.792969 165.449219 228.199219 C 165.675781 228.078125 165.847656 227.925781 165.988281 227.765625 C 166.15625 227.679688 166.324219 227.597656 166.492188 227.515625 C 166.691406 227.453125 166.875 227.359375 167.039062 227.242188 C 174.605469 223.464844 182.324219 220.015625 190.144531 216.800781 C 190.511719 216.792969 190.820312 216.65625 191.058594 216.429688 C 208.984375 209.09375 227.394531 202.878906 245.578125 196.296875 C 274.25 185.917969 301.511719 171.230469 331.136719 163.621094 C 331.335938 163.570312 331.5 163.488281 331.632812 163.382812 C 337.449219 165.433594 344.121094 165.976562 350.421875 166.5 C 323.777344 177.902344 297.417969 189.875 270.476562 200.609375 C 256.414062 206.210938 242.28125 211.648438 228.070312 216.871094 C 220.824219 219.535156 213.5625 222.152344 206.285156 224.71875 C 199.523438 227.105469 192.125 228.90625 185.726562 232.140625 C 185.121094 232.449219 184.851562 232.929688 184.824219 233.429688 C 160.363281 245.851562 135.820312 258.101562 111.328125 270.460938 C 98.46875 276.949219 85.523438 283.234375 72.277344 288.902344 Z M 337.414062 299.273438 C 333.214844 302.09375 328.824219 299.261719 324.707031 297.710938 C 317.628906 295.039062 310.601562 292.222656 303.636719 289.253906 C 290.109375 283.488281 276.890625 277.082031 263.765625 270.460938 C 239.714844 258.324219 215.511719 246.5 191.480469 234.328125 C 197.417969 232.617188 203.308594 229.996094 209.015625 227.933594 C 209.078125 227.910156 209.140625 227.886719 209.203125 227.863281 C 209.328125 227.988281 209.46875 228.101562 209.648438 228.199219 C 253.097656 251.792969 298.160156 273.125 343.710938 292.34375 C 341.953125 294.730469 339.785156 297.683594 337.414062 299.273438 Z M 302.515625 217.636719 C 307.144531 226.015625 311.746094 234.410156 316.34375 242.808594 C 320.828125 251.003906 325.308594 259.195312 329.796875 267.386719 C 332.902344 273.0625 335.738281 279.390625 339.101562 285.175781 C 296.757812 266.613281 255.132812 246.855469 213.761719 226.199219 C 219.4375 224.132812 225.101562 222.046875 230.753906 219.921875 C 245.210938 214.484375 259.605469 208.890625 273.917969 203.097656 C 279.570312 200.808594 285.210938 198.496094 290.847656 196.164062 C 293.789062 203.617188 298.671875 210.683594 302.515625 217.636719 Z M 302.515625 217.636719 " fill-opacity="1" fill-rule="nonzero"/><path fill="#00bf63" d="M 197.78125 106.386719 C 203.242188 98.527344 210.832031 92.253906 219.800781 88.789062 C 228.238281 85.527344 236.300781 86.148438 245.09375 85.808594 C 245.609375 85.789062 245.898438 85.027344 245.375 84.773438 C 237.011719 80.710938 226.027344 83.035156 217.804688 86.484375 C 208.632812 90.335938 201.023438 96.847656 195.425781 105.015625 C 194.433594 106.464844 196.789062 107.816406 197.78125 106.386719 Z M 197.78125 106.386719 " fill-opacity="1" fill-rule="nonzero"/><path fill="#00bf63" d="M 218.417969 95.210938 C 208.613281 98.878906 200.542969 105.171875 196.417969 114.953125 C 195.878906 116.230469 198.097656 117.175781 198.679688 115.90625 C 202.792969 106.902344 210.789062 101.109375 219.953125 97.832031 C 224 96.382812 228.238281 95.210938 232.476562 94.496094 C 237.589844 93.632812 242.191406 94.515625 247.21875 95.40625 C 247.75 95.5 248.15625 94.902344 247.757812 94.480469 C 240.898438 87.1875 226.265625 92.277344 218.417969 95.210938 Z M 218.417969 95.210938 " fill-opacity="1" fill-rule="nonzero"/><path fill="#00bf63" d="M 223.890625 103.722656 C 213.359375 107.039062 204.226562 113.558594 197.484375 122.257812 C 196.46875 123.570312 198.289062 125.441406 199.339844 124.109375 C 205.730469 116.042969 214.191406 109.890625 224.054688 106.777344 C 228.683594 105.3125 233.507812 104.53125 238.363281 104.484375 C 243.101562 104.441406 247.738281 105.984375 252.4375 105.609375 C 252.875 105.574219 253.285156 104.960938 252.847656 104.621094 C 245.550781 98.960938 232.03125 101.15625 223.890625 103.722656 Z M 223.890625 103.722656 " fill-opacity="1" fill-rule="nonzero"/><path fill="#00bf63" d="M 240.550781 111.382812 C 234.382812 112.078125 228.242188 113.203125 222.363281 115.226562 C 212.398438 118.65625 203.804688 124.433594 197.488281 132.910156 C 196.675781 134 198.535156 135.449219 199.390625 134.375 C 205.96875 126.113281 215.082031 120.457031 225.136719 117.367188 C 230.996094 115.5625 237.070312 114.589844 243.164062 114.027344 C 248.753906 113.511719 254.5625 113.898438 259.984375 112.320312 C 260.578125 112.148438 260.636719 111.203125 259.984375 111.058594 C 253.75 109.691406 246.835938 110.671875 240.550781 111.382812 Z M 240.550781 111.382812 " fill-opacity="1" fill-rule="nonzero"/><path fill="#00bf63" d="M 227.4375 129.679688 C 232.691406 128.023438 238.050781 126.6875 243.472656 125.683594 C 248.714844 124.714844 254.789062 124.96875 259.652344 122.632812 C 260.070312 122.429688 259.914062 121.835938 259.53125 121.710938 C 254.097656 119.910156 247.277344 121.769531 241.78125 122.816406 C 235.21875 124.0625 228.753906 125.804688 222.453125 128.011719 C 212.992188 131.324219 203.445312 135.71875 198.636719 145.023438 C 197.878906 146.488281 200.050781 147.777344 200.859375 146.320312 C 206.210938 136.652344 217.472656 132.824219 227.4375 129.679688 Z M 227.4375 129.679688 " fill-opacity="1" fill-rule="nonzero"/><path fill="#00bf63" d="M 246.742188 132.058594 C 240.238281 133.054688 233.746094 134.429688 227.546875 136.675781 C 217.289062 140.386719 208.039062 146.527344 201.21875 155.074219 C 200.320312 156.195312 201.875 157.808594 202.824219 156.679688 C 209.925781 148.210938 219.289062 142.628906 229.699219 139.125 C 234.960938 137.355469 240.40625 136.15625 245.882812 135.269531 C 251.894531 134.296875 258.378906 134.355469 264.082031 132.066406 C 264.492188 131.902344 264.628906 131.199219 264.082031 131.097656 C 258.375 130.023438 252.425781 131.191406 246.742188 132.058594 Z M 246.742188 132.058594 " fill-opacity="1" fill-rule="nonzero"/><path fill="#00bf63" d="M 128.960938 85.808594 C 137.75 86.148438 145.820312 85.527344 154.253906 88.789062 C 163.226562 92.257812 170.8125 98.523438 176.273438 106.386719 C 177.265625 107.816406 179.625 106.464844 178.628906 105.015625 C 173.027344 96.84375 165.421875 90.347656 156.25 86.484375 C 148.042969 83.027344 137.035156 80.714844 128.679688 84.773438 C 128.160156 85.027344 128.449219 85.789062 128.960938 85.808594 Z M 128.960938 85.808594 " fill-opacity="1" fill-rule="nonzero"/><path fill="#00bf63" d="M 126.839844 95.40625 C 131.433594 94.589844 135.652344 93.691406 140.335938 94.324219 C 145 94.953125 149.679688 96.25 154.105469 97.832031 C 163.269531 101.109375 171.261719 106.898438 175.378906 115.90625 C 175.953125 117.164062 178.183594 116.246094 177.636719 114.953125 C 173.511719 105.167969 165.441406 98.886719 155.640625 95.210938 C 147.804688 92.273438 133.148438 87.191406 126.296875 94.480469 C 125.898438 94.902344 126.304688 95.5 126.839844 95.40625 Z M 126.839844 95.40625 " fill-opacity="1" fill-rule="nonzero"/><path fill="#00bf63" d="M 121.617188 105.609375 C 126.316406 105.984375 130.957031 104.453125 135.691406 104.484375 C 140.546875 104.519531 145.375 105.316406 150 106.777344 C 159.863281 109.890625 168.324219 116.042969 174.714844 124.109375 C 175.765625 125.4375 177.589844 123.570312 176.570312 122.257812 C 169.84375 113.574219 160.691406 107.007812 150.167969 103.722656 C 142.003906 101.175781 128.519531 98.953125 121.207031 104.621094 C 120.769531 104.960938 121.175781 105.574219 121.617188 105.609375 Z M 121.617188 105.609375 " fill-opacity="1" fill-rule="nonzero"/><path fill="#00bf63" d="M 151.691406 115.226562 C 145.820312 113.195312 139.667969 112.082031 133.507812 111.382812 C 127.21875 110.667969 120.304688 109.691406 114.074219 111.058594 C 113.421875 111.199219 113.476562 112.148438 114.074219 112.320312 C 119.226562 113.820312 124.703125 113.488281 130.015625 113.945312 C 136.40625 114.496094 142.78125 115.476562 148.921875 117.367188 C 158.972656 120.457031 168.085938 126.113281 174.664062 134.375 C 175.511719 135.4375 177.386719 134.011719 176.566406 132.910156 C 170.246094 124.425781 161.660156 118.675781 151.691406 115.226562 Z M 151.691406 115.226562 " fill-opacity="1" fill-rule="nonzero"/><path fill="#00bf63" d="M 151.605469 128.011719 C 145.300781 125.804688 138.835938 124.0625 132.273438 122.816406 C 126.789062 121.769531 119.945312 119.910156 114.523438 121.710938 C 114.144531 121.835938 113.988281 122.429688 114.402344 122.632812 C 119.042969 124.863281 124.730469 124.636719 129.730469 125.527344 C 135.441406 126.542969 141.089844 127.933594 146.621094 129.679688 C 156.585938 132.824219 167.84375 136.652344 173.199219 146.320312 C 174.003906 147.773438 176.179688 146.488281 175.421875 145.023438 C 170.609375 135.722656 161.0625 131.324219 151.605469 128.011719 Z M 151.605469 128.011719 " fill-opacity="1" fill-rule="nonzero"/><path fill="#00bf63" d="M 146.507812 136.675781 C 140.316406 134.421875 133.816406 133.054688 127.316406 132.058594 C 121.628906 131.1875 115.683594 130.023438 109.972656 131.097656 C 109.429688 131.199219 109.566406 131.902344 109.972656 132.066406 C 115.433594 134.257812 121.578125 134.238281 127.335938 135.140625 C 133.101562 136.042969 138.820312 137.273438 144.359375 139.125 C 154.765625 142.609375 164.136719 148.222656 171.234375 156.679688 C 172.179688 157.808594 173.734375 156.195312 172.839844 155.074219 C 166.007812 146.515625 156.765625 140.410156 146.507812 136.675781 Z M 146.507812 136.675781 " fill-opacity="1" fill-rule="nonzero"/></svg>