<svg xmlns="http://www.w3.org/2000/svg" xmlns:xlink="http://www.w3.org/1999/xlink" width="300" zoomAndPan="magnify" viewBox="0 0 375 374.999991" height="300" preserveAspectRatio="xMidYMid meet" version="1.0"><path fill="#00bf63" d="M 121.925781 43.773438 L 121.699219 43.773438 C 120.128906 32.136719 104.871094 34.179688 98.730469 40.816406 C 94.4375 45.457031 91.359375 51.011719 88.371094 56.535156 C 84.777344 63.183594 81.433594 69.96875 78.746094 77.042969 C 77.164062 81.203125 75.71875 85.414062 74.136719 89.574219 C 73.5625 91.082031 73.28125 93.25 72.304688 94.535156 C 70.679688 96.679688 68.9375 94.332031 67.488281 93.605469 C 65.613281 92.667969 62.96875 93.226562 61.652344 94.828125 C 59.652344 97.261719 62.207031 99.78125 61.007812 101.878906 C 59.957031 103.71875 57.886719 102.984375 56.328125 104.078125 C 52.921875 106.464844 53.507812 112.703125 57.917969 113.5 C 57.917969 116.425781 55.859375 116.167969 54.660156 118.515625 C 52.710938 122.320312 55.964844 125.726562 59.742188 125.804688 L 60.5625 129.433594 L 58.234375 134.007812 L 59.058594 139.476562 L 58.832031 139.476562 C 54.3125 125.609375 51.386719 109.636719 37.875 101.472656 C 32.945312 98.492188 21.261719 94.675781 18.300781 102.335938 C 15.808594 108.789062 22.292969 116.894531 24.5625 122.617188 C 27.011719 128.796875 26.585938 135.121094 27.644531 141.527344 C 28.726562 148.085938 31.089844 154.070312 33.5 160.214844 C 37.320312 169.945312 39.167969 180.089844 42.140625 190.066406 C 43.914062 196.027344 46.515625 201.738281 49.105469 207.382812 C 57.160156 224.933594 71.566406 239.332031 76.5625 258.425781 C 78.199219 264.675781 77.3125 271.921875 76.636719 278.25 C 75.21875 291.484375 72.335938 304.4375 67.871094 316.984375 C 65.949219 322.394531 63.191406 327.542969 61.328125 332.9375 C 60.753906 334.605469 62.273438 336.332031 63.695312 334.707031 C 65.253906 332.929688 65.996094 329.855469 66.898438 327.695312 C 69.53125 321.414062 71.640625 314.875 73.503906 308.328125 C 76.804688 296.753906 79.441406 285.019531 80.261719 273.007812 C 80.636719 267.546875 80.699219 261.957031 79.355469 256.601562 C 78.167969 251.867188 75.578125 247.519531 73.46875 243.15625 C 71.132812 238.328125 68.949219 233.433594 66.210938 228.800781 C 60.65625 219.410156 54.363281 210.742188 49.789062 200.773438 C 46.792969 194.242188 44.320312 187.675781 42.464844 180.722656 C 40.929688 174.949219 40.15625 169.15625 37.71875 163.632812 C 34.59375 156.5625 31.75 148.425781 30.234375 140.84375 C 29.539062 137.371094 29.695312 133.84375 29.15625 130.363281 C 28.378906 125.332031 26.761719 120.558594 24.492188 116.007812 C 22.765625 112.546875 17.191406 103.375 23.070312 101.058594 C 27.105469 99.46875 31.382812 101 34.914062 103.019531 C 42.394531 107.296875 47.175781 113.589844 50.21875 121.476562 C 52.871094 128.347656 53.882812 135.816406 56.65625 142.667969 C 58.390625 146.953125 61.214844 150.917969 63.765625 154.746094 C 67.300781 160.046875 71.152344 165.910156 75.914062 170.203125 C 79.960938 173.847656 85 175.882812 89.808594 178.273438 C 95.582031 181.140625 101.40625 184.578125 105.980469 189.152344 C 112.363281 195.535156 118.136719 201.878906 123.425781 209.207031 C 126.148438 212.980469 129.242188 219.148438 133.316406 221.511719 C 132.9375 219.386719 131.492188 217.386719 130.367188 215.585938 C 128.53125 212.65625 126.765625 209.742188 124.753906 206.925781 C 118.542969 198.226562 112.640625 189.636719 103.703125 183.460938 C 99.367188 180.464844 94.78125 177.835938 90.035156 175.539062 C 86.613281 173.882812 82.863281 172.585938 79.785156 170.292969 C 77.78125 168.800781 76.226562 166.640625 74.582031 164.773438 C 70.167969 159.746094 64.203125 153.601562 61.820312 147.226562 C 61.175781 145.5 60.566406 140.972656 62.347656 139.65625 C 62.871094 139.265625 63.890625 139.363281 64.527344 139.25 C 63.746094 140.433594 62.964844 141.445312 62.773438 142.894531 C 62.164062 147.496094 66.671875 148.871094 70.21875 148.136719 C 68.523438 151.363281 68.6875 156.390625 73.410156 156.773438 C 75.234375 156.925781 77.042969 155.441406 78.648438 156.113281 L 78.648438 156.339844 C 75.597656 158.734375 76.796875 163.984375 80.46875 165.082031 C 81.535156 165.402344 82.84375 165.394531 83.886719 165.007812 C 84.671875 164.714844 85.507812 163.820312 86.390625 164.167969 C 88.265625 164.90625 87.289062 166.5 87.308594 167.960938 C 87.328125 169.464844 87.953125 170.980469 89.136719 171.941406 C 90.738281 173.25 92.953125 173.53125 94.820312 172.617188 C 95.554688 172.257812 96.511719 170.847656 97.390625 171.125 C 98.78125 171.574219 98.265625 173.058594 98.242188 174.113281 C 98.203125 175.710938 98.625 177.199219 99.875 178.289062 C 102.660156 180.714844 104.828125 177.96875 107.574219 178.671875 C 104.949219 183.6875 111.777344 189.625 115.546875 184.824219 L 115.777344 184.824219 C 116.300781 185.398438 117.230469 185.882812 117.476562 186.65625 C 118.324219 189.347656 116.59375 191.839844 120.105469 193.5 C 122.804688 194.78125 124.789062 192.222656 127.164062 193.027344 C 126.328125 195.199219 126.078125 197.480469 127.742188 199.363281 C 129.546875 201.410156 133.792969 201.585938 135.136719 198.953125 L 136.960938 200.089844 C 135.519531 203.625 136.390625 208.0625 141.058594 208.0625 C 142.625 208.0625 144.71875 206.296875 145.960938 207.648438 C 146.5625 208.304688 146.085938 209.320312 146.179688 210.117188 C 146.34375 211.507812 147.027344 212.796875 148.125 213.671875 C 149.445312 214.730469 151.339844 214.957031 152.902344 214.335938 C 153.648438 214.042969 154.566406 213.105469 155.402344 213.246094 C 156.53125 213.433594 156.265625 214.785156 156.4375 215.585938 C 156.71875 216.878906 157.46875 218.066406 158.601562 218.777344 C 159.722656 219.480469 161.203125 219.640625 162.472656 219.28125 C 163.253906 219.054688 164.132812 218.3125 164.953125 218.78125 C 166.058594 219.410156 165.351562 220.953125 165.472656 221.964844 C 165.679688 223.6875 166.800781 225.253906 168.394531 225.945312 C 169.566406 226.457031 171.0625 226.519531 172.265625 226.074219 C 173.046875 225.785156 173.882812 224.929688 174.761719 225.257812 C 176.214844 225.796875 175.3125 228.0625 175.574219 229.257812 C 176.175781 232.042969 178.675781 233.5625 181.375 233.585938 C 181.375 242.320312 179.410156 251.300781 176.042969 259.335938 C 172.804688 267.050781 168.40625 274.230469 165.074219 281.894531 C 161.085938 291.066406 159.089844 300.871094 157.003906 310.605469 C 155.640625 316.972656 154.21875 323.296875 153.296875 329.746094 C 153.054688 331.449219 151.9375 335.03125 153.292969 336.433594 C 155.699219 338.925781 156.042969 332.707031 156.226562 331.570312 C 157.308594 324.832031 158.539062 318.175781 160.042969 311.515625 C 161.996094 302.882812 163.835938 293.699219 167.351562 285.539062 C 171.550781 275.800781 177.574219 266.902344 181.070312 256.828125 C 182.996094 251.277344 184.0625 245.566406 184.757812 239.738281 C 185.101562 236.878906 185.015625 233.878906 185.703125 231.082031 C 186.929688 232.09375 185.703125 235.082031 186.699219 236.777344 C 187.703125 238.484375 190.308594 238.320312 191.054688 239.773438 C 191.886719 241.390625 191.683594 244.089844 191.949219 245.890625 C 192.554688 249.984375 193.40625 254.023438 194.667969 257.96875 C 198.035156 268.511719 204.296875 277.761719 208.742188 287.820312 C 212.300781 295.871094 214.148438 305.011719 216.078125 313.566406 C 217.601562 320.304688 218.925781 327.015625 219.933594 333.847656 C 220.125 335.140625 220.105469 340.207031 222.363281 339.371094 C 224.441406 338.605469 223.210938 334.726562 223.023438 333.164062 C 222.25 326.699219 220.777344 320.382812 219.414062 314.023438 C 217.570312 305.402344 215.824219 296.792969 212.757812 288.503906 C 210.464844 282.296875 207.261719 276.417969 204.324219 270.5 C 200.304688 262.394531 196.953125 254.464844 195.695312 245.4375 C 195.285156 242.472656 194.5 239.238281 195.269531 236.320312 C 197.128906 237.546875 196.09375 239.71875 197.175781 241.5625 C 199.179688 244.972656 204.257812 244.417969 205.976562 241.105469 C 206.804688 242.011719 206.339844 242.941406 206.539062 244.070312 C 206.835938 245.757812 207.859375 247.273438 209.394531 248.078125 C 210.675781 248.75 212.359375 248.8125 213.722656 248.339844 C 215.238281 247.820312 216.039062 246.460938 217.570312 247.832031 C 218.675781 248.824219 217.847656 249.898438 217.882812 251.132812 C 217.933594 253.050781 219.035156 254.8125 220.78125 255.609375 C 222.058594 256.191406 223.339844 256.207031 224.65625 255.746094 C 225.195312 255.554688 226.167969 254.710938 226.742188 254.992188 C 227.390625 255.3125 226.425781 258.113281 226.519531 258.878906 C 226.957031 262.53125 231.8125 265.191406 234.675781 262.296875 L 234.90625 262.296875 C 235.410156 263.1875 236.578125 264.226562 236.675781 265.261719 C 236.933594 267.972656 234.984375 269.652344 237.335938 272.253906 C 238.714844 273.777344 240.300781 273.808594 242.183594 273.855469 C 242.660156 273.867188 243.167969 274.042969 243.195312 274.605469 C 243.226562 275.371094 242.214844 275.964844 241.746094 276.433594 C 240.777344 277.410156 239.875 278.570312 239.335938 279.84375 C 236.535156 286.5 240.828125 293.515625 247.886719 294.425781 L 247.886719 294.65625 C 244.414062 296.035156 245.796875 303.574219 246.199219 306.503906 C 246.347656 307.601562 246.359375 308.890625 247.03125 309.832031 C 247.796875 310.90625 249.507812 311.15625 250.621094 311.746094 C 248.121094 313.105469 247.578125 316.9375 247.070312 319.492188 C 245.574219 326.964844 244.78125 334.90625 245.675781 342.507812 C 245.933594 344.6875 245.082031 353 248.785156 352.003906 C 249.964844 351.6875 249.566406 350.46875 249.503906 349.570312 C 249.332031 347.074219 249.03125 344.550781 249.027344 342.050781 L 249.253906 342.050781 C 249.441406 344.324219 250.765625 350.300781 253.136719 351.222656 C 255.777344 352.253906 260.175781 350.242188 262.921875 350.027344 C 262.917969 348.894531 262.242188 346.949219 263.148438 346.152344 L 264.0625 349.796875 C 266.367188 349.363281 271.488281 349.234375 273 347.214844 C 273.941406 345.964844 272.6875 342.8125 272.488281 341.367188 C 271.609375 335.03125 269.136719 329.441406 267.476562 323.367188 C 268.53125 324.410156 268.949219 325.921875 269.585938 327.238281 C 271.417969 331.027344 272.636719 335.011719 273.65625 339.089844 C 274.011719 340.515625 274.359375 344.839844 275.578125 345.6875 C 276.539062 346.351562 278.203125 344.980469 278.492188 344.097656 C 278.933594 342.753906 277.804688 340.003906 277.46875 338.632812 C 275.496094 330.507812 273.042969 322.765625 267.476562 316.300781 C 264.792969 313.183594 261.804688 310.414062 257.457031 310.378906 C 258.023438 309.632812 258.925781 309.035156 259.179688 308.097656 C 259.53125 306.796875 258.957031 305.0625 258.726562 303.769531 C 258.058594 300.058594 257.714844 294.324219 253.355469 293.289062 L 253.355469 293.058594 C 258.542969 291.050781 260.035156 283.605469 257.347656 279.160156 C 255.058594 275.375 250.554688 273.585938 246.292969 274.375 L 246.171875 267.3125 L 243.820312 263.664062 L 242.195312 258.195312 C 249.046875 256.976562 246.507812 246.675781 239.6875 247.941406 C 239.382812 245.460938 241.472656 245.429688 242.441406 243.386719 C 244.152344 239.769531 241.234375 236.386719 237.636719 236.09375 C 237.527344 235.226562 237.058594 234 237.339844 233.152344 C 237.730469 231.972656 239.371094 231.398438 239.921875 230.167969 C 241.441406 226.78125 238.890625 223.265625 235.359375 223.105469 C 235.386719 220.949219 237.191406 220.875 238.210938 219.226562 C 240.082031 216.210938 238.28125 212.082031 234.675781 211.710938 L 234.675781 208.292969 C 238.550781 208.210938 240.980469 203.976562 238.984375 200.546875 C 238.457031 199.636719 236.414062 198.644531 236.441406 197.585938 C 236.476562 196.304688 239.230469 195.164062 239.742188 193.710938 C 240.671875 191.070312 238.15625 189.082031 239.257812 186.648438 C 240.117188 184.75 242.59375 184.699219 243.453125 182.546875 C 244.238281 180.5625 242.324219 177.9375 243.878906 176.464844 C 245.472656 174.949219 247.964844 175.945312 249.453125 173.65625 C 250.800781 171.582031 248.730469 168.117188 250.425781 166.714844 C 251.097656 166.160156 252.128906 166.742188 252.898438 166.761719 C 254.257812 166.800781 255.785156 166.152344 256.722656 165.183594 C 257.742188 164.132812 258.246094 162.574219 258.101562 161.125 C 258.027344 160.460938 257.328125 159.101562 258.007812 158.589844 C 258.796875 158 261.636719 159.480469 262.921875 159.183594 C 266.484375 158.359375 267.53125 154.484375 265.882812 151.554688 C 266.449219 151.265625 267.1875 150.542969 267.835938 150.546875 C 268.546875 150.554688 269.3125 151.300781 269.984375 151.53125 C 271.886719 152.183594 274.042969 151.644531 275.402344 150.167969 C 276.4375 149.042969 276.6875 147.566406 276.566406 146.085938 C 276.480469 145.03125 275.859375 144.25 276.589844 143.351562 C 278.242188 146.890625 283.617188 146.945312 285.492188 143.578125 C 286.726562 141.371094 285.507812 140.046875 285.429688 137.894531 C 285.398438 137.082031 286.214844 136.761719 286.839844 136.515625 C 289.550781 143.460938 300.214844 135.769531 294.8125 131.046875 L 294.8125 130.820312 L 295.722656 130.363281 C 297.132812 133.128906 301.515625 132.984375 303.378906 130.796875 C 305.085938 128.796875 304.683594 126.308594 303.46875 124.210938 C 304.039062 123.921875 304.652344 123.34375 305.289062 123.226562 C 305.929688 123.105469 306.542969 123.585938 307.113281 123.808594 C 310.210938 125.039062 310.375 128.207031 311.183594 131.273438 C 312.050781 134.550781 312.945312 137.816406 313.878906 141.074219 C 314.414062 142.941406 315.230469 145.03125 315.042969 147 C 314.773438 149.839844 313.242188 151.953125 311.738281 154.289062 C 308.8125 158.828125 305.410156 162.964844 301.902344 167.050781 C 300.242188 168.980469 298.648438 171.164062 296.632812 172.738281 C 290.851562 177.246094 283.039062 179.296875 276.816406 183.242188 C 265.773438 190.234375 258.402344 199.476562 251.070312 210.117188 C 248.175781 214.320312 244.308594 219.042969 242.878906 224.015625 C 246.449219 222.351562 249.027344 216.84375 251.335938 213.761719 C 257.035156 206.144531 262.789062 199.089844 269.53125 192.347656 C 273.921875 187.953125 279.285156 184.535156 284.789062 181.691406 C 289.742188 179.132812 295.015625 177.140625 299.367188 173.550781 C 304.582031 169.257812 308.625 163.042969 312.351562 157.480469 C 314.910156 153.660156 317.765625 149.6875 319.503906 145.402344 C 321.914062 139.453125 323.144531 133.074219 324.976562 126.945312 C 327.578125 118.25 332.472656 110.914062 340.367188 106.164062 C 344.195312 103.863281 348.144531 102.15625 352.667969 103.457031 C 359.078125 105.300781 353.765625 114.296875 352.140625 117.832031 C 350.042969 122.40625 348.195312 126.742188 347.296875 131.730469 C 346.53125 135.976562 346.6875 140.25 345.785156 144.492188 C 344.296875 151.480469 341.527344 158.59375 338.898438 165.226562 C 334.320312 176.765625 332.984375 189.183594 327.769531 200.546875 C 320.761719 215.808594 310.714844 229.1875 303.40625 244.296875 C 300.625 250.050781 297.429688 255.710938 296.28125 262.070312 C 295.519531 266.304688 295.753906 270.574219 295.941406 274.832031 C 296.472656 287.019531 299.347656 299.125 302.6875 310.832031 C 304.449219 317.007812 306.554688 323.066406 308.835938 329.0625 C 309.777344 331.53125 310.785156 335.207031 312.496094 337.230469 C 313.941406 338.945312 315.449219 337.132812 314.863281 335.441406 C 312.996094 330.042969 310.246094 324.902344 308.320312 319.492188 C 304.035156 307.445312 301.304688 295.03125 299.785156 282.351562 C 299.0625 276.304688 298.183594 269.722656 299.242188 263.664062 C 302.535156 244.917969 316.585938 230.390625 325.046875 213.992188 C 328.519531 207.261719 331.742188 200.269531 333.984375 193.027344 C 336.019531 186.441406 337.195312 179.589844 339.164062 172.976562 C 341.539062 165.007812 345.34375 157.554688 347.457031 149.503906 C 348.699219 144.765625 348.742188 140.171875 349.316406 135.378906 C 350.085938 128.941406 352.402344 123.636719 355.121094 117.832031 C 356.820312 114.207031 359.269531 109.65625 358.148438 105.527344 C 357.25 102.203125 354.449219 101.015625 351.300781 100.722656 C 346.074219 100.238281 341.769531 101.761719 337.40625 104.632812 C 327.539062 111.121094 324.085938 121.289062 320.769531 131.957031 C 319.777344 135.167969 318.082031 138.691406 317.589844 141.984375 C 316.488281 140.933594 316.390625 139.066406 315.929688 137.65625 C 315.011719 134.835938 314.632812 131.855469 313.847656 128.996094 C 313.425781 127.460938 312.394531 125.347656 312.492188 123.753906 C 312.574219 122.390625 313.953125 121.320312 314.128906 119.882812 C 314.3125 118.429688 312.765625 116.140625 313.199219 115.046875 C 313.667969 113.875 315.519531 114.699219 316.449219 114.570312 C 318.589844 114.28125 320.328125 112.6875 320.703125 110.539062 C 320.96875 109.027344 320.59375 107.386719 319.5625 106.230469 C 318.949219 105.542969 317.644531 105.003906 317.699219 103.933594 C 317.765625 102.707031 319.28125 102.511719 320.089844 101.925781 C 321.195312 101.128906 321.933594 99.8125 322.101562 98.460938 C 322.382812 96.203125 321.503906 93.964844 319.410156 92.867188 C 318.585938 92.433594 316.761719 92.582031 316.386719 91.59375 C 316.015625 90.621094 317.191406 89.816406 317.667969 89.121094 C 318.289062 88.21875 318.578125 87.019531 318.457031 85.929688 C 318.089844 82.5625 314.4375 80.636719 311.4375 82.144531 C 310.59375 82.566406 309.394531 84.460938 308.484375 84.320312 C 307.324219 84.144531 307.296875 81.554688 306.800781 80.691406 C 305.007812 77.578125 299.847656 77.246094 298.226562 80.6875 L 297.773438 80.6875 C 295.910156 72.835938 290.859375 65.519531 286.933594 58.585938 C 283.605469 52.703125 280.191406 45.980469 274.765625 41.726562 C 270.097656 38.066406 261.09375 35.679688 256.621094 41.042969 C 255.402344 42.5 254.871094 44.453125 254.492188 46.28125 L 254.265625 46.28125 C 253.066406 41.101562 249.292969 32.859375 244.472656 30.222656 C 234.917969 24.996094 226.933594 35.515625 226.933594 44.230469 C 224.820312 43.628906 223.046875 42.769531 220.78125 42.871094 C 218.304688 42.984375 216.113281 44.34375 214.40625 46.054688 C 207.527344 52.9375 210.730469 62.984375 212.183594 71.347656 C 212.554688 73.472656 213.316406 75.578125 213.492188 77.726562 C 208.394531 75.050781 201.566406 78.113281 200.140625 83.652344 C 198.59375 89.671875 200.734375 95.765625 201.875 101.652344 C 197.203125 99.910156 194.457031 103.050781 194.816406 107.578125 L 191.398438 108.488281 C 189.40625 102.640625 181.65625 103.933594 181.605469 110.082031 L 179.328125 110.3125 C 178.835938 107.058594 175.671875 105.734375 172.722656 106.4375 C 172.878906 104.445312 173.460938 102.449219 173.945312 100.511719 C 175.992188 92.316406 180.902344 75.539062 167.710938 74.277344 C 165.933594 74.105469 164.390625 74.539062 162.699219 74.992188 C 164.222656 67.136719 167.496094 58.175781 165.605469 50.15625 C 164.402344 45.050781 160.191406 40.351562 154.726562 40.355469 C 152.691406 40.359375 151.132812 41.054688 149.257812 41.722656 C 149.257812 32.996094 141.351562 22.316406 131.71875 27.675781 C 126.914062 30.351562 123.152344 38.589844 121.925781 43.773438 M 181.148438 223.105469 C 180.011719 223.109375 178.960938 223.175781 177.960938 223.789062 C 177.296875 224.191406 176.566406 225.167969 175.695312 224.820312 C 174.269531 224.253906 175.519531 222.148438 175.410156 221.054688 C 175.214844 219.132812 173.777344 217.511719 172.039062 216.804688 C 169.242188 215.667969 167.195312 219.035156 164.976562 217.863281 C 165.425781 216.292969 166.21875 214.980469 165.636719 213.308594 C 164.046875 208.738281 159.039062 209.542969 156.777344 212.851562 L 155.410156 212.167969 C 157.496094 206.5625 150.871094 202.15625 146.980469 207.15625 L 145.160156 206.242188 C 146.058594 202.941406 145.789062 198.285156 141.058594 198.285156 C 139.628906 198.285156 137.785156 200.054688 136.539062 199.042969 C 135.375 198.101562 136.472656 196.164062 136.097656 194.851562 C 134.964844 190.910156 130.761719 190.175781 127.847656 192.570312 L 127.621094 192.570312 C 126.113281 191.207031 127.472656 189.59375 126.949219 187.785156 C 125.855469 183.984375 121.003906 182.949219 118.507812 185.964844 L 116.230469 184.597656 C 116.488281 183.097656 117.183594 181.828125 116.734375 180.265625 C 115.519531 176.035156 110.945312 175.558594 108.03125 178.214844 L 107.804688 178.214844 L 107.121094 177.761719 C 108.25 174.652344 108.679688 171.324219 104.84375 169.769531 C 103.613281 169.273438 102.394531 169.300781 101.199219 169.875 C 100.273438 170.320312 99.335938 171.5 98.25 170.875 C 96.910156 170.109375 97.667969 168.714844 97.480469 167.507812 C 97.179688 165.59375 95.699219 163.855469 93.910156 163.167969 C 91.648438 162.296875 88.84375 165.054688 87.316406 163.886719 C 85.847656 162.761719 87.390625 159.367188 86.171875 157.480469 C 85.273438 156.089844 83.539062 154.949219 81.835938 155.003906 C 80.9375 155.03125 79.523438 155.949219 78.730469 155.28125 C 77.859375 154.550781 79.128906 152.570312 79.027344 151.554688 C 78.613281 147.515625 75.109375 146.738281 71.8125 147 C 72.121094 145.640625 72.792969 144.574219 72.714844 143.125 C 72.542969 139.832031 69.472656 138.347656 66.574219 138.339844 C 68.078125 136.03125 69.144531 133.792969 67.308594 131.277344 C 66.761719 130.53125 65.246094 129.871094 65.09375 128.949219 C 64.667969 126.40625 66.867188 122.320312 67.582031 119.882812 C 73.914062 98.253906 81.09375 75.644531 92.445312 56.078125 C 97.09375 48.070312 102.175781 38.457031 112.816406 39.238281 C 121.085938 39.84375 117.910156 51.40625 116.382812 56.308594 C 110.765625 74.3125 103.097656 91.609375 97.476562 109.628906 C 95.910156 114.648438 94.445312 119.90625 93.710938 125.121094 C 93.539062 126.335938 92.613281 129.773438 94.367188 130.285156 C 95.835938 130.714844 96.40625 125.835938 96.597656 124.894531 C 97.90625 118.445312 99.65625 112.003906 101.730469 105.753906 C 106.535156 91.28125 112.378906 77.140625 117.867188 62.914062 C 120.074219 57.207031 121.398438 51.226562 123.84375 45.597656 C 126.472656 39.554688 129.949219 28.898438 138.097656 29.917969 C 147.746094 31.121094 145.898438 44.300781 144.449219 50.609375 C 142.800781 57.78125 140.183594 64.582031 137.949219 71.574219 C 133.492188 85.53125 128.746094 99.417969 124.691406 113.5 C 122.941406 119.582031 121.15625 125.6875 119.269531 131.730469 C 118.867188 133.023438 116.921875 137.199219 119.195312 137.710938 C 121.027344 138.125 121.59375 134.023438 121.925781 132.871094 C 123.535156 127.257812 124.984375 121.585938 126.714844 116.007812 C 132.496094 97.394531 138.421875 78.851562 144.703125 60.410156 C 145.910156 56.871094 146.902344 53.324219 147.808594 49.699219 C 148.148438 48.328125 148.253906 46.09375 149.160156 44.988281 C 150.089844 43.855469 151.960938 43.390625 153.359375 43.328125 C 163.703125 42.859375 163.148438 56.046875 161.832031 62.914062 C 157.699219 84.488281 151.628906 105.914062 145.324219 126.945312 C 143.578125 132.773438 142.066406 138.6875 140.296875 144.492188 C 139.898438 145.808594 138.25 149.550781 140.195312 150.375 C 141.46875 150.914062 142.355469 147.796875 142.6875 147 C 144.398438 142.835938 145.386719 138.117188 146.621094 133.78125 C 150.703125 119.484375 154.792969 105.140625 158.398438 90.714844 C 159.429688 86.589844 160.203125 77.957031 165.660156 77.542969 C 170.128906 77.203125 172.527344 80.554688 172.910156 84.5625 C 173.550781 91.308594 171.078125 98.488281 169.890625 105.070312 C 167.136719 120.347656 163.96875 135.367188 162.90625 150.871094 C 162.535156 156.300781 161.542969 162.34375 162.574219 167.734375 C 163.675781 173.464844 166.628906 179.21875 168.847656 184.597656 C 172.375 193.148438 175.691406 201.691406 178.285156 210.574219 C 179.445312 214.546875 181.136719 218.929688 181.148438 223.105469 M 305.0625 121.933594 L 305.0625 122.160156 C 301.96875 124.835938 298.039062 120.488281 295.320312 125.121094 C 294.996094 125.671875 294.789062 126.316406 294.691406 126.945312 C 294.535156 127.949219 294.90625 128.921875 295.039062 129.90625 C 292.8125 130.613281 291.074219 128.578125 288.660156 130.128906 C 285.855469 131.933594 286.972656 135.105469 284.5625 136.972656 L 284.332031 136.972656 C 281.5625 134.691406 277.449219 135.085938 276.035156 138.792969 C 275.664062 139.765625 276.3125 142.136719 275.726562 142.746094 C 275.109375 143.390625 273.765625 142.109375 273.171875 141.867188 C 271.65625 141.25 269.898438 141.523438 268.617188 142.53125 C 265.171875 145.238281 268.277344 148.652344 265.65625 151.097656 L 265.429688 151.097656 C 262.601562 148.558594 257.636719 148.957031 256.847656 153.378906 C 256.679688 154.324219 257.921875 157.515625 257.148438 157.894531 C 256.394531 158.265625 255.03125 156.988281 254.265625 156.78125 C 252.007812 156.160156 249.636719 157.523438 248.582031 159.53125 C 247.019531 162.503906 250.609375 164.933594 249.027344 167.277344 C 247.144531 166.496094 245.679688 165.40625 243.5625 166.246094 C 239.175781 167.992188 239.371094 173.425781 243.332031 175.480469 L 242.421875 177.304688 C 241.222656 176.648438 239.984375 175.847656 238.550781 176.050781 C 232.839844 176.871094 233.359375 184.695312 238.777344 185.507812 L 238.09375 188.015625 C 236.539062 187.589844 235.136719 186.988281 233.539062 187.679688 C 228.3125 189.945312 230.835938 196.257812 235.589844 196.902344 L 235.589844 198.039062 C 229.0625 198.042969 227.179688 206.671875 233.992188 208.292969 C 233.992188 209.101562 234.289062 210.648438 233.757812 211.316406 C 232.902344 212.402344 231.03125 212.429688 230.078125 213.765625 C 227.507812 217.347656 230.804688 221.425781 234.675781 221.511719 C 234.648438 223.769531 232.1875 223.957031 231.117188 225.839844 C 228.941406 229.664062 232.761719 233.214844 236.5 232.902344 L 236.957031 236.320312 C 230.640625 238.144531 232.746094 246.101562 238.777344 246.121094 C 239.03125 249.367188 235.277344 250.726562 236.3125 254.324219 C 237.207031 257.4375 239.46875 256.925781 241.382812 258.621094 C 242.386719 259.507812 242.765625 262.378906 242.878906 263.664062 C 241.792969 263.464844 240.765625 263.34375 239.6875 263.675781 C 239.03125 263.882812 238.15625 264.554688 237.449219 264.292969 C 234.441406 263.160156 236.53125 260.566406 236.675781 258.652344 C 236.808594 256.90625 235.808594 255.101562 234.441406 254.082031 C 233.199219 253.15625 231.59375 252.785156 230.121094 253.308594 C 229.488281 253.535156 228.375 254.515625 227.695312 254.246094 C 226.863281 253.921875 227.773438 252.191406 227.824219 251.589844 C 227.976562 249.761719 227.296875 248.050781 225.792969 246.949219 C 224.441406 245.960938 222.789062 245.703125 221.238281 246.332031 C 220.28125 246.71875 219.367188 247.796875 218.277344 247.34375 C 215.636719 246.253906 217.375 244.09375 216.578125 242.019531 C 214.871094 237.578125 209.8125 237.367188 207.117188 240.878906 L 206.203125 240.421875 C 206.839844 237.007812 204.113281 233.058594 200.28125 234.109375 C 199.121094 234.429688 197.582031 236.394531 196.445312 236.058594 C 195.488281 235.773438 195.839844 234.542969 195.777344 233.816406 C 195.613281 231.910156 194.472656 230.578125 194.609375 228.574219 C 195.597656 214.089844 202.308594 199.6875 207.707031 186.417969 C 209.78125 181.328125 212.515625 175.859375 213.621094 170.46875 C 214.53125 166.007812 213.699219 161.28125 213.503906 156.796875 C 212.933594 143.820312 210.648438 131.292969 208.425781 118.515625 C 206.761719 108.957031 204.203125 99.476562 203.28125 89.804688 C 202.898438 85.777344 204.074219 80.988281 208.710938 80.300781 C 215.636719 79.277344 216.375 87.570312 217.621094 92.539062 C 221.285156 107.121094 225.507812 121.578125 229.535156 136.058594 C 230.78125 140.546875 232.042969 145.101562 233.558594 149.503906 C 233.824219 150.28125 234.828125 153.652344 236.085938 152.929688 C 237.890625 151.886719 236.398438 148.667969 236.015625 147.226562 C 234.515625 141.503906 232.804688 135.808594 231.097656 130.136719 C 227.285156 117.472656 223.941406 104.640625 220.582031 91.855469 C 218.277344 83.089844 215.90625 74.375 214.421875 65.421875 C 213.523438 59.992188 212.488281 54.292969 215.871094 49.472656 C 217.546875 47.085938 220.0625 45.464844 223.0625 45.894531 C 224.335938 46.078125 226.152344 46.492188 227.03125 47.507812 C 227.988281 48.617188 228.148438 51.035156 228.496094 52.433594 C 229.425781 56.125 230.371094 59.78125 231.644531 63.371094 C 238.125 81.585938 243.425781 100.15625 249.484375 118.515625 C 251.3125 124.058594 252.738281 129.761719 254.332031 135.375 C 254.679688 136.597656 255.152344 140.527344 256.996094 140.316406 C 259.292969 140.050781 257.363281 135.425781 256.992188 134.238281 C 255.015625 127.871094 253.214844 121.460938 251.226562 115.097656 C 247.097656 101.863281 242.914062 88.652344 238.699219 75.449219 C 236.660156 69.0625 234.164062 62.824219 232.542969 56.308594 C 230.757812 49.128906 227.859375 39.335938 234.90625 33.902344 C 243.121094 27.570312 248.957031 40.089844 251.53125 46.054688 C 254.378906 52.652344 256.160156 59.617188 258.691406 66.332031 C 264.132812 80.761719 270.058594 94.988281 274.917969 109.628906 C 276.863281 115.484375 278.476562 121.578125 279.6875 127.628906 C 279.890625 128.652344 280.273438 133.101562 281.824219 132.886719 C 283.808594 132.617188 282.648438 128.347656 282.453125 127.171875 C 281.453125 121.164062 279.753906 115.210938 277.949219 109.398438 C 273.882812 96.304688 268.75 83.539062 264.050781 70.664062 C 261.824219 64.570312 258.390625 57.851562 257.929688 51.292969 C 257.761719 48.875 257.992188 45.011719 259.820312 43.179688 C 262.585938 40.417969 268.492188 41.890625 271.351562 43.652344 C 278.355469 47.972656 282.394531 57.152344 286.320312 64.054688 C 290.242188 70.960938 293.882812 78.226562 296.621094 85.703125 C 299.921875 94.703125 303.511719 104.195312 305.800781 113.5 C 306.164062 114.996094 305.175781 115.675781 304.585938 116.917969 C 303.8125 118.566406 304.0625 120.46875 305.0625 121.933594 M 315.765625 92.539062 C 310.792969 94.625 310.804688 102.507812 316.90625 102.792969 L 316.679688 104.613281 C 313.570312 104.617188 310.367188 106.5 310.800781 110.082031 C 310.917969 111.085938 313.246094 113.839844 312.082031 114.359375 C 309.367188 115.566406 308.390625 110.960938 307.871094 109.398438 C 306.160156 104.246094 304.410156 99.105469 302.847656 93.90625 C 302.34375 92.230469 301.484375 90.617188 301.1875 88.890625 C 304.144531 88.890625 306.148438 87.859375 307.339844 85.019531 C 309.625 85.574219 308.808594 88.429688 310.535156 89.984375 C 312.195312 91.472656 314.996094 90.398438 315.765625 92.539062 M 72.042969 95.957031 C 70.183594 101.660156 68.039062 107.277344 66.378906 113.046875 C 65.859375 114.851562 65.34375 118.96875 63.84375 120.109375 C 63.382812 117.539062 61.292969 116.113281 58.832031 115.78125 L 58.832031 113.730469 C 64.769531 113.679688 65.980469 106.519531 61.109375 103.703125 C 61.835938 100.648438 64.414062 103.042969 66.574219 102.417969 C 69.589844 101.546875 70.023438 98.847656 69.992188 96.183594 L 72.042969 95.957031 M 203.015625 108.714844 L 203.472656 108.714844 C 205.03125 112.878906 205.511719 117.792969 206.300781 122.160156 C 208.042969 131.8125 209.199219 141.328125 209.871094 151.101562 C 210.316406 157.613281 211.328125 164.226562 209.925781 170.695312 C 209.121094 174.40625 207.308594 177.921875 205.847656 181.40625 C 202.96875 188.265625 199.859375 195.117188 197.398438 202.140625 C 195.265625 208.226562 193.34375 214.523438 191.953125 220.828125 C 191.414062 223.261719 191.589844 226.230469 190.84375 228.539062 C 190.613281 229.265625 187.585938 230.722656 186.847656 230.683594 C 185.652344 230.621094 185.304688 225.390625 185.25 224.246094 C 184.910156 217.375 182.3125 209.996094 180.160156 203.507812 C 177.515625 195.527344 174.101562 187.8125 170.894531 180.039062 C 169.269531 176.09375 167.171875 172.152344 166.265625 167.960938 C 164.945312 161.851562 165.902344 155.425781 166.324219 149.277344 C 167.109375 137.785156 168 126.082031 170.898438 114.867188 C 174.839844 117.242188 178.894531 115.894531 179.554688 110.996094 C 180.171875 110.96875 181.136719 110.660156 181.6875 111.011719 C 183.789062 112.347656 184.273438 115.039062 187.527344 114.292969 C 191.460938 113.390625 190.351562 108.753906 194.359375 108.378906 C 195.605469 108.265625 196.324219 109.445312 197.320312 109.988281 C 199.335938 111.082031 201.617188 110.433594 203.015625 108.714844 M 62.929688 123.984375 L 61.792969 129.222656 L 61.5625 129.222656 L 60.425781 125.578125 L 62.929688 123.984375 M 70.449219 147.910156 L 70.21875 148.136719 L 70.449219 147.910156 M 245.15625 272.324219 L 245.609375 274.601562 L 244.472656 274.832031 L 243.5625 273.234375 Z M 245.15625 272.324219 " fill-opacity="1" fill-rule="nonzero"/></svg>