<svg xmlns="http://www.w3.org/2000/svg" xmlns:xlink="http://www.w3.org/1999/xlink" width="500" zoomAndPan="magnify" viewBox="0 0 375 374.999991" height="500" preserveAspectRatio="xMidYMid meet" version="1.0"><defs><clipPath id="e4ae4524be"><path d="M 187.5 0 C 83.945312 0 0 83.945312 0 187.5 C 0 291.054688 83.945312 375 187.5 375 C 291.054688 375 375 291.054688 375 187.5 C 375 83.945312 291.054688 0 187.5 0 " clip-rule="nonzero"/></clipPath><clipPath id="d821eca3e9"><path d="M 92.699219 72.289062 L 282.449219 72.289062 L 282.449219 300 L 92.699219 300 Z M 92.699219 72.289062 " clip-rule="nonzero"/></clipPath><clipPath id="4bf301fe1d"><path d="M 282.449219 83.53125 L 282.449219 291.300781 C 282.449219 293.847656 281.195312 296.234375 279.09375 297.683594 C 276.992188 299.128906 274.3125 299.453125 271.925781 298.550781 L 198.101562 270.554688 C 191.320312 267.984375 183.828125 267.984375 177.050781 270.554688 L 103.226562 298.550781 C 100.835938 299.453125 98.15625 299.128906 96.054688 297.683594 C 93.953125 296.234375 92.699219 293.847656 92.699219 291.300781 L 92.699219 83.53125 C 92.699219 77.324219 97.738281 72.289062 103.957031 72.289062 L 271.191406 72.289062 C 277.410156 72.289062 282.449219 77.324219 282.449219 83.53125 " clip-rule="nonzero"/></clipPath></defs><g clip-path="url(#e4ae4524be)"><rect x="-37.5" width="450" fill="#01160c" y="-37.499999" height="449.999989" fill-opacity="1"/></g><g clip-path="url(#d821eca3e9)"><g clip-path="url(#4bf301fe1d)"><path stroke-linecap="butt" transform="matrix(0.750603, 0, 0, 0.749466, 92.699295, 72.290993)" fill="none" stroke-linejoin="miter" d="M 252.796804 14.99769 L 252.796804 292.221151 C 252.796804 295.619404 251.126271 298.803963 248.326437 300.737632 C 245.526603 302.666089 241.956554 303.098688 238.776817 301.894706 L 140.423541 264.53998 C 131.389133 261.110454 121.407569 261.110454 112.378364 264.53998 L 14.025089 301.894706 C 10.840148 303.098688 7.270099 302.666089 4.470265 300.737632 C 1.670431 298.803963 -0.000101868 295.619404 -0.000101868 292.221151 L -0.000101868 14.99769 C -0.000101868 6.71575 6.713255 -0.00257564 14.998265 -0.00257564 L 237.798436 -0.00257564 C 246.083447 -0.00257564 252.796804 6.71575 252.796804 14.99769 " stroke="#00bf63" stroke-width="82" stroke-opacity="1" stroke-miterlimit="4"/></g></g></svg>