<svg xmlns="http://www.w3.org/2000/svg" xmlns:xlink="http://www.w3.org/1999/xlink" width="100" zoomAndPan="magnify" viewBox="0 0 375 374.999991" height="100" preserveAspectRatio="xMidYMid meet" version="1.0"><defs><clipPath id="31bcbad210"><path d="M 84 12.117188 L 322 12.117188 L 322 101 L 84 101 Z M 84 12.117188 " clip-rule="nonzero"/></clipPath></defs><path fill="#00bf63" d="M 87.53125 57.753906 C 86.921875 57.550781 86.253906 57.648438 85.730469 58.023438 C 85.207031 58.394531 84.894531 58.992188 84.886719 59.632812 L 82.484375 248.667969 C 82.472656 249.519531 82.996094 250.285156 83.792969 250.578125 L 202.558594 294.683594 C 203.171875 294.914062 203.863281 294.824219 204.402344 294.449219 C 204.941406 294.074219 205.265625 293.457031 205.261719 292.796875 L 204.921875 98.582031 C 204.921875 97.722656 204.371094 96.957031 203.554688 96.683594 Z M 88.863281 62.441406 L 200.910156 100.035156 L 201.242188 289.910156 L 86.515625 247.304688 L 88.863281 62.441406 " fill-opacity="1" fill-rule="evenodd"/><path fill="#00bf63" d="M 321.625 58.582031 C 321.617188 57.9375 321.300781 57.335938 320.773438 56.964844 C 320.246094 56.59375 319.574219 56.5 318.964844 56.710938 L 202.617188 96.800781 C 201.804688 97.082031 201.261719 97.839844 201.261719 98.699219 L 201.261719 292.800781 C 201.261719 293.460938 201.585938 294.082031 202.128906 294.453125 C 202.671875 294.832031 203.363281 294.914062 203.980469 294.679688 L 322.734375 249.519531 C 323.519531 249.222656 324.035156 248.460938 324.027344 247.621094 Z M 317.644531 61.410156 L 319.992188 246.265625 C 308.285156 250.71875 221.792969 283.609375 205.277344 289.890625 C 205.277344 289.890625 205.277344 117.644531 205.277344 100.132812 L 317.644531 61.410156 " fill-opacity="1" fill-rule="evenodd"/><g clip-path="url(#31bcbad210)"><path fill="#00bf63" d="M 203.96875 12.316406 C 203.503906 12.136719 202.988281 12.140625 202.523438 12.320312 L 86.1875 57.789062 C 85.402344 58.097656 84.890625 58.863281 84.914062 59.707031 C 84.933594 60.550781 85.480469 61.292969 86.277344 61.5625 L 202.628906 100.726562 C 203.046875 100.867188 203.503906 100.867188 203.921875 100.71875 L 320.273438 60.507812 C 321.070312 60.230469 321.613281 59.484375 321.625 58.640625 C 321.640625 57.796875 321.121094 57.035156 320.332031 56.730469 Z M 203.265625 16.34375 L 313.742188 58.515625 C 313.742188 58.515625 212.332031 93.566406 203.261719 96.699219 L 92.796875 59.519531 L 203.265625 16.34375 " fill-opacity="1" fill-rule="evenodd"/></g><path fill="#00bf63" d="M 86.257812 100.71875 L 202.609375 141.328125 C 203.070312 141.488281 203.570312 141.476562 204.023438 141.289062 L 320.375 93.972656 C 321.398438 93.558594 321.894531 92.386719 321.476562 91.355469 C 321.058594 90.332031 319.886719 89.835938 318.859375 90.253906 L 203.214844 137.285156 C 193.472656 133.886719 87.582031 96.925781 87.582031 96.925781 C 86.535156 96.5625 85.390625 97.113281 85.023438 98.160156 C 84.660156 99.207031 85.210938 100.355469 86.257812 100.71875 " fill-opacity="1" fill-rule="evenodd"/><path fill="#00bf63" d="M 86.257812 110.691406 L 202.609375 151.296875 C 203.070312 151.457031 203.570312 151.445312 204.023438 151.261719 L 320.375 103.945312 C 321.398438 103.527344 321.894531 102.355469 321.476562 101.328125 C 321.058594 100.300781 319.886719 99.808594 318.859375 100.226562 C 318.859375 100.226562 212.867188 143.328125 203.214844 147.257812 L 87.582031 106.898438 C 86.535156 106.53125 85.390625 107.085938 85.023438 108.132812 C 84.660156 109.179688 85.210938 110.324219 86.257812 110.691406 " fill-opacity="1" fill-rule="evenodd"/><path fill="#00bf63" d="M 86.878906 242.722656 L 203.230469 283.328125 C 203.671875 283.484375 204.15625 283.476562 204.597656 283.3125 L 320.945312 239.519531 C 321.984375 239.128906 322.507812 237.972656 322.117188 236.933594 C 321.726562 235.894531 320.570312 235.371094 319.53125 235.761719 L 203.867188 279.296875 L 88.203125 238.929688 C 87.15625 238.5625 86.011719 239.117188 85.644531 240.164062 C 85.28125 241.210938 85.832031 242.359375 86.878906 242.722656 " fill-opacity="1" fill-rule="evenodd"/><path fill="#00bf63" d="M 94.269531 121.648438 C 93.664062 121.457031 93 121.566406 92.488281 121.9375 C 91.96875 122.3125 91.664062 122.910156 91.660156 123.546875 L 90.648438 233.292969 C 90.640625 234.128906 91.148438 234.886719 91.929688 235.1875 L 122.976562 247.160156 C 123.597656 247.398438 124.292969 247.316406 124.835938 246.941406 C 125.382812 246.566406 125.710938 245.949219 125.710938 245.285156 L 125.738281 133.082031 C 125.738281 132.207031 125.167969 131.429688 124.335938 131.167969 Z M 95.648438 126.296875 L 121.71875 134.550781 L 121.695312 242.359375 L 94.675781 231.9375 L 95.648438 126.296875 " fill-opacity="1" fill-rule="evenodd"/><path fill="#00bf63" d="M 134.6875 135.609375 C 134.078125 135.417969 133.410156 135.527344 132.890625 135.90625 C 132.375 136.285156 132.070312 136.890625 132.070312 137.53125 L 132.132812 153.429688 C 132.136719 154.300781 132.699219 155.066406 133.523438 155.335938 L 164.707031 165.371094 C 165.324219 165.570312 166 165.460938 166.519531 165.074219 C 167.039062 164.683594 167.339844 164.070312 167.328125 163.421875 L 167.011719 147.300781 C 166.996094 146.4375 166.433594 145.683594 165.613281 145.425781 Z M 136.097656 140.273438 L 163.027344 148.816406 L 163.257812 160.6875 L 136.140625 151.957031 L 136.097656 140.273438 " fill-opacity="1" fill-rule="evenodd"/><path fill="#00bf63" d="M 172.636719 147.488281 C 172.023438 147.292969 171.355469 147.402344 170.839844 147.785156 C 170.320312 148.164062 170.015625 148.765625 170.019531 149.410156 L 170.078125 165.308594 C 170.082031 166.175781 170.644531 166.945312 171.472656 167.210938 L 202.652344 177.25 C 203.269531 177.449219 203.945312 177.335938 204.464844 176.949219 C 204.988281 176.5625 205.289062 175.949219 205.277344 175.300781 L 204.960938 159.175781 C 204.945312 158.316406 204.382812 157.5625 203.5625 157.300781 Z M 174.042969 152.148438 L 200.976562 160.695312 L 201.207031 172.566406 L 174.089844 163.835938 L 174.042969 152.148438 " fill-opacity="1" fill-rule="evenodd"/><path fill="#00bf63" d="M 236.261719 146.804688 C 236.214844 146.167969 235.867188 145.589844 235.324219 145.25 C 234.78125 144.910156 234.109375 144.851562 233.515625 145.089844 L 202.839844 157.351562 C 202.089844 157.648438 201.589844 158.367188 201.574219 159.175781 L 201.261719 175.300781 C 201.246094 175.960938 201.566406 176.589844 202.105469 176.972656 C 202.644531 177.359375 203.339844 177.453125 203.960938 177.222656 L 236.1875 165.347656 C 237.027344 165.035156 237.5625 164.207031 237.492188 163.3125 Z M 232.460938 149.835938 L 233.378906 162.101562 L 205.332031 172.4375 L 205.5625 160.585938 L 232.460938 149.835938 " fill-opacity="1" fill-rule="evenodd"/><path fill="#00bf63" d="M 278.90625 129.050781 C 278.835938 128.429688 278.480469 127.875 277.941406 127.550781 C 277.40625 127.230469 276.746094 127.175781 276.164062 127.410156 L 246.515625 139.257812 C 245.6875 139.589844 245.179688 140.425781 245.261719 141.3125 L 246.902344 158.582031 C 246.960938 159.203125 247.304688 159.761719 247.832031 160.09375 C 248.363281 160.425781 249.015625 160.492188 249.597656 160.273438 L 279.625 149.109375 C 280.492188 148.789062 281.023438 147.921875 280.921875 147.003906 Z M 275.207031 132.117188 L 276.757812 145.894531 L 250.652344 155.597656 L 249.402344 142.429688 L 275.207031 132.117188 " fill-opacity="1" fill-rule="evenodd"/><path fill="#00bf63" d="M 321.695312 112.351562 C 321.671875 111.691406 321.328125 111.082031 320.769531 110.726562 C 320.210938 110.367188 319.511719 110.3125 318.902344 110.570312 L 286.816406 124.210938 C 285.980469 124.566406 285.484375 125.445312 285.613281 126.347656 L 288.1875 144.121094 C 288.28125 144.753906 288.667969 145.304688 289.234375 145.609375 C 289.800781 145.90625 290.472656 145.921875 291.050781 145.640625 L 321.113281 131.082031 C 321.828125 130.734375 322.273438 130.003906 322.246094 129.210938 Z M 317.777344 115.410156 L 318.191406 128.035156 L 291.769531 140.832031 L 289.8125 127.300781 L 317.777344 115.410156 " fill-opacity="1" fill-rule="evenodd"/><path fill="#00bf63" d="M 87.417969 170.804688 C 87.421875 170.171875 87.128906 169.574219 86.628906 169.195312 C 86.125 168.8125 85.472656 168.6875 84.867188 168.859375 C 49.375 178.914062 26.800781 198.289062 21.269531 224.476562 C 16.949219 244.917969 24.921875 266.417969 42.144531 286.066406 C 67.488281 314.984375 112.960938 339.964844 167.738281 351.542969 C 222.515625 363.121094 274.199219 358.667969 309.074219 342.480469 C 332.769531 331.476562 348.753906 315.039062 353.070312 294.597656 C 358.191406 270.34375 347.777344 244.464844 323.375 222.078125 C 322.789062 221.539062 321.941406 221.398438 321.210938 221.71875 C 320.484375 222.039062 320.011719 222.761719 320.011719 223.558594 L 320.011719 245.875 L 203.265625 290.652344 L 86.992188 246.550781 Z M 83.390625 173.476562 C 83.3125 187.117188 82.96875 247.921875 82.96875 247.921875 C 82.964844 248.761719 83.480469 249.511719 84.265625 249.808594 L 202.558594 294.679688 C 203.015625 294.855469 203.527344 294.855469 203.988281 294.675781 L 322.738281 249.128906 C 323.515625 248.832031 324.027344 248.085938 324.027344 247.253906 L 324.027344 228.238281 C 344.804688 248.722656 353.761719 271.890625 349.140625 293.769531 C 345.0625 313.082031 329.773438 328.441406 307.382812 338.835938 C 273.132812 354.738281 222.363281 358.980469 168.566406 347.613281 C 114.769531 336.242188 70.054688 311.820312 45.164062 283.417969 C 28.890625 264.851562 21.117188 244.621094 25.199219 225.304688 C 30.324219 201.035156 51.101562 183.21875 83.390625 173.476562 " fill-opacity="1" fill-rule="evenodd"/></svg>